<svg width="48" height="42" viewBox="0 0 48 42" fill="none" xmlns="http://www.w3.org/2000/svg">
<path d="M47.8701 21.1174C47.8679 21.4473 47.6772 21.7474 47.379 21.8883L13.1399 38.1286C12.7992 39.5417 11.8126 40.7795 10.3701 41.3772C7.97537 42.369 5.22008 41.2278 4.22806 38.8331C1.8892 33.1862 0.703152 27.224 0.703152 21.1119C0.703151 14.9999 1.88908 9.03766 4.22806 3.39077C4.471 2.80437 4.8195 2.29326 5.24268 1.87008C6.54771 0.565174 8.56177 0.0976348 10.3701 0.846767C11.5867 1.35077 12.479 2.3104 12.9333 3.44631L47.389 20.3403C47.6852 20.4855 47.8722 20.7875 47.8701 21.1174ZM17.0339 34.3794L20.6625 32.6581C20.642 32.0095 20.3344 31.3958 19.8073 30.9913C19.343 30.6352 18.7679 30.481 18.1878 30.5573C17.6077 30.6337 17.0925 30.9312 16.7359 31.3956C16.3798 31.8597 16.2256 32.4348 16.302 33.0149C16.3724 33.5494 16.6309 34.0288 17.0339 34.3794ZM9.71239 2.43479C8.19322 1.80549 6.44514 2.52965 5.8162 4.0487C1.25838 15.0521 1.25844 27.1718 5.81614 38.1753C6.12094 38.9112 6.69404 39.4843 7.42999 39.7892C8.16587 40.094 8.97638 40.094 9.71227 39.7892C10.4482 39.4843 11.0213 38.9112 11.3261 38.1753C11.6309 37.4394 11.6309 36.6289 11.3261 35.893C9.37513 31.1831 8.38597 26.2101 8.38597 21.112C8.38597 16.0139 9.37519 11.0409 11.3261 6.33092C11.9555 4.8118 11.2315 3.06391 9.71239 2.43479ZM33.5385 15.4635C33.4849 15.5198 33.433 15.5781 33.3852 15.6402C33.0291 16.1043 32.875 16.6794 32.9514 17.2594C33.0277 17.8395 33.3255 18.3552 33.7896 18.7113C34.7478 19.4465 36.1252 19.2653 36.8609 18.3069C37.0878 18.0112 37.2318 17.6645 37.2868 17.3012L33.5385 15.4635ZM38.8723 18.0788C38.7374 18.5361 38.5195 18.9687 38.2244 19.3533C36.9126 21.0641 34.4534 21.3871 32.7432 20.0749C31.9148 19.4392 31.3836 18.5191 31.2473 17.4838C31.116 16.4866 31.3672 15.4981 31.954 14.6865L27.2145 12.3626L26.8913 14.8175C26.8293 15.2879 26.3976 15.6194 25.9271 15.5573C25.4565 15.4954 25.1254 15.0637 25.1873 14.5931L25.5861 11.5641L13.2596 5.52017C13.2252 6.01274 13.1134 6.50781 12.9144 6.98848C9.14191 16.0962 9.14191 26.1275 12.9144 35.235C13.0456 35.5517 13.1384 35.8749 13.197 36.1993L15.4045 35.1522C14.971 34.6051 14.6916 33.9493 14.5981 33.2393C14.4617 32.2041 14.7368 31.1776 15.3725 30.3493C15.479 30.2105 15.5932 30.0803 15.7149 29.9586C16.3194 29.3541 17.1017 28.9668 17.9635 28.8532C18.9989 28.7169 20.0251 28.992 20.8537 29.6277C21.5974 30.1984 22.0949 31.0027 22.2898 31.8863L32.5369 27.0259L32.132 26.0484C31.9949 25.7174 32.0799 25.3499 32.3183 25.1115C32.3958 25.034 32.4895 24.9702 32.5971 24.9256C33.0355 24.7439 33.5383 24.9523 33.7199 25.3907L34.0918 26.2883L45.0323 21.099L38.8723 18.0788Z" fill="#363853"/>
</svg>
